ply
format ascii 1.0
comment Created in Blender version 4.2.3 LTS
element vertex 8
property float x
property float y
property float z
property float nx
property float ny
property float nz
property uchar red
property uchar green
property uchar blue
property uchar alpha
element face 12
property list uchar uint vertex_indices
end_header
-2.5 1 1 -0.2721798 0.680411 0.680411 254 0 5 255
-2.5 -1 1 -0.27215126 -0.68041664 0.68041664 254 0 5 255
-2.5 1 -1 -0.27215126 0.68041664 -0.68041664 254 0 5 255
-2.5 -1 -1 -0.2721798 -0.680411 -0.680411 254 0 5 255
2.5 1 1 0.27215126 0.68041664 0.68041664 254 0 5 255
2.5 -1 1 0.2721798 -0.680411 0.680411 254 0 5 255
2.5 1 -1 0.2721798 0.680411 -0.680411 254 0 5 255
2.5 -1 -1 0.27215126 -0.68041664 -0.68041664 254 0 5 255
3 4 2 0
3 2 7 3
3 6 5 7
3 1 7 5
3 0 3 1
3 4 1 5
3 4 6 2
3 2 6 7
3 6 4 5
3 1 3 7
3 0 2 3
3 4 0 1
